
<!--
- XXL
- nav
- XL
- L
- tablet
- side
- phone
- icon-1
- close
- search
- subdirectory_arrow_right
- drop-down
- hashtag
- attachment
- toolbar-bottom
- toolbar-left
- toolbar-top
- search
-settings
-drop
-mark
-rightarrow
-leftarrow
-bookmark
-clipboard
-component
-add
-check
-edit
-trash
-downChevron
-save
-plus
-componentHandle
-expand
-collapse
-expandHorizontal
-calculator
-copy
-zip
-source
-buider
-todo
-gear
-upload
- XXL
- XL
- L
-tablet
-side
-phone
-zoomIn
-zoomOut
-add
-minus
-refresh
-launch
-download
-assetManager
- experimental
- addCircle
- invert
- infoCircle
- play
- tree
- webflow
- right arrow
- arrow-right
- extend
-->


<svg xmlns="http://www.w3.org/2000/svg" xmlns:xlink="http://www.w3.org/1999/xlink">
  <defs>

    <symbol viewBox="0 0 24 24" id="pause">
      <path fill="none" stroke="currentColor" stroke-width="1.5"
        d="M6 18.4V5.6a.6.6 0 0 1 .6-.6h2.8a.6.6 0 0 1 .6.6v12.8a.6.6 0 0 1-.6.6H6.6a.6.6 0 0 1-.6-.6Zm8 0V5.6a.6.6 0 0 1 .6-.6h2.8a.6.6 0 0 1 .6.6v12.8a.6.6 0 0 1-.6.6h-2.8a.6.6 0 0 1-.6-.6Z" />
    </symbol>


    <symbol viewBox="0 0 24 24" id="gear">
      <path fill="currentColor"
        d="M128 84a44 44 0 1 0 44 44a44.05 44.05 0 0 0-44-44Zm0 80a36 36 0 1 1 36-36a36 36 0 0 1-36 36Zm106-56a4 4 0 0 0-2-2.7l-30.89-17.6q-.47-.82-1-1.62l-.01-34.88a3.94 3.94 0 0 0-1.42-3a107.8 107.8 0 0 0-35.41-19.94a4 4 0 0 0-3.23.29L129 45.87h-2L96 28.51a4 4 0 0 0-3.23-.3a108.05 108.05 0 0 0-35.39 20a4 4 0 0 0-1.41 3l-.16 34.9l-1 1.62L23.9 105.3A4 4 0 0 0 22 108a102.76 102.76 0 0 0 0 40a4 4 0 0 0 1.95 2.7l30.89 17.6q.47.83 1 1.62l.12 34.87a3.94 3.94 0 0 0 1.42 3a107.8 107.8 0 0 0 35.41 19.94a4 4 0 0 0 3.23-.29L127 210.13h2l31 17.36a4 4 0 0 0 3.23.3a108.05 108.05 0 0 0 35.39-20a4 4 0 0 0 1.41-3l.16-34.9l1-1.62l30.91-17.57a4 4 0 0 0 2-2.71A102.76 102.76 0 0 0 234 108Zm-7.48 36.67l-30.22 17.17a4 4 0 0 0-1.51 1.53c-.61 1.09-1.25 2.17-1.91 3.24a3.92 3.92 0 0 0-.61 2.1l-.16 34.15a99.8 99.8 0 0 1-29.7 16.77l-30.4-17a4.06 4.06 0 0 0-2-.51h-3.85a4.1 4.1 0 0 0-2.05.51l-30.45 17a100.23 100.23 0 0 1-29.77-16.73l-.12-34.12a3.93 3.93 0 0 0-.61-2.11c-.66-1-1.3-2.14-1.91-3.23a4 4 0 0 0-1.51-1.53l-30.25-17.23a94.78 94.78 0 0 1 0-33.34L59.7 94.16a4 4 0 0 0 1.51-1.53c.61-1.09 1.25-2.17 1.91-3.23a4 4 0 0 0 .61-2.11l.16-34.15a99.8 99.8 0 0 1 29.7-16.77l30.4 17a4.1 4.1 0 0 0 2.05.51h3.84a4 4 0 0 0 2.05-.51l30.45-17a100.23 100.23 0 0 1 29.73 16.73l.12 34.12a3.93 3.93 0 0 0 .61 2.11c.66 1 1.3 2.14 1.91 3.23a4 4 0 0 0 1.51 1.53l30.25 17.23a94.78 94.78 0 0 1 .03 33.34Z" />
    </symbol>

    <symbol viewBox="0 0 256 256" id="arrow-right">
      <path fill="currentColor"
        d="m218.83 130.83l-72 72a4 4 0 0 1-5.66-5.66L206.34 132H40a4 4 0 0 1 0-8h166.34l-65.17-65.17a4 4 0 0 1 5.66-5.66l72 72a4 4 0 0 1 0 5.66Z" />
    </symbol>

    <symbol viewBox="0 0 24 24" id="themeToggle">
      <svg xmlns="http://www.w3.org/2000/svg" width="24" height="24" viewBox="0 0 24 24">
        <path fill="currentColor"
          d="M12 22c5.523 0 10-4.477 10-10S17.523 2 12 2S2 6.477 2 12s4.477 10 10 10Zm0-2V4a8 8 0 1 1 0 16Z" />
      </svg>
    </symbol>

    <symbol viewBox="0 0 24 24" id="infoCircle">
      <path stroke="currentColor" stroke-linecap="round" stroke-width="1.5" d="M12 17v-6" />
      <circle cx="1" cy="1" r="1" fill="none" transform="matrix(1 0 0 -1 11 9)" />
      <path stroke="currentColor" stroke-linecap="round" stroke-width="1.5"
        d="M7 3.338A9.954 9.954 0 0 1 12 2c5.523 0 10 4.477 10 10s-4.477 10-10 10S2 17.523 2 12c0-1.821.487-3.53 1.338-5" />
    </symbol>

    <symbol viewBox="0 0 100 100" id="remove">
      <svg xmlns="http://www.w3.org/2000/svg" width="100" height="100" viewBox="0 0 100 100">
        <path fill="currentColor"
          d="M75.412 70.658v-.033h-.003a1.728 1.728 0 0 0-1.727-1.696h-6.49c-.944 0-1.708.757-1.727 1.696h-.01v12.668H24.814V36.16h17.723a1.73 1.73 0 0 0 1.73-1.73V16.707h21.188v30.2h.013a1.727 1.727 0 0 0 1.724 1.668h6.49c.935 0 1.69-.742 1.724-1.668h.006V12.501h-.005V8.48a1.73 1.73 0 0 0-1.73-1.73h-32.87L14.857 32.7v58.819c0 .956.774 1.73 1.73 1.73h57.089a1.73 1.73 0 0 0 1.73-1.73v-2.448h.005V70.658h.001z" />
        <path fill="currentColor"
          d="M83.413 53.562h-25.95a1.73 1.73 0 0 0-1.73 1.73v6.92c0 .955.774 1.73 1.73 1.73h25.95a1.73 1.73 0 0 0 1.73-1.73v-6.92a1.73 1.73 0 0 0-1.73-1.73z" />
      </svg>
    </symbol>

    <symbol viewBox="0 0 24 24" id="canvas">
      <svg xmlns="http://www.w3.org/2000/svg" width="24" height="24" viewBox="0 0 24 24">
        <path fill="currentColor"
          d="M17 9v6H7V9h10m2-6h-2v3h2V3M7 3H5v3h2V3m16 4h-3v2h3V7m-4 0H5v10h14V7M4 7H1v2h3V7m19 8h-3v2h3v-2M4 15H1v2h3v-2m15 3h-2v3h2v-3M7 18H5v3h2v-3Z" />
      </svg>
    </symbol>


    <symbol viewBox="0 0 24 24" id="extend">
      <path fill="none" stroke="currentColor" stroke-linecap="round" stroke-linejoin="round"
        d="M15.5 9.5V5.522l-4-.022m-2 10.023h-4V11.5" />
    </symbol>


    <symbol viewBox="0 0 256 256" id="webflow">
      <g fill="none">
        <rect width="256" height="256" fill="#4353FF" rx="60" />
        <path fill="#fff"
          d="M169.105 103.436s-13.815 43.282-14.836 46.957c-.408-3.607-10.48-81.393-10.48-81.393c-23.547 0-36.069 16.741-42.739 34.436c0 0-16.809 43.418-18.17 47.025c-.068-3.403-2.586-46.617-2.586-46.617C78.864 82.134 59.06 69 43 69l19.328 117.802c24.635-.068 37.906-16.741 44.847-34.503c0 0 14.768-38.315 15.381-40.016c.136 1.633 10.616 74.519 10.616 74.519c24.704 0 38.043-15.584 45.188-32.666L213 69c-24.432 0-37.294 16.673-43.895 34.436Z" />
      </g>
    </symbol>

    <symbol viewBox="0 0 24 24" id="switch">
      <svg xmlns="http://www.w3.org/2000/svg" width="24" height="24" viewBox="0 0 24 24">
        <path fill="currentColor"
          d="M7.72 21.78a.75.75 0 0 0 1.06-1.06L5.56 17.5h14.69a.75.75 0 0 0 0-1.5H5.56l3.22-3.22a.75.75 0 1 0-1.06-1.06l-4.5 4.5a.75.75 0 0 0 0 1.06l4.5 4.5Zm8.56-9.5a.75.75 0 1 1-1.06-1.06L18.44 8H3.75a.75.75 0 0 1 0-1.5h14.69l-3.22-3.22a.75.75 0 0 1 1.06-1.06l4.5 4.5a.75.75 0 0 1 0 1.06l-4.5 4.5Z" />
      </svg>
    </symbol>

    <symbol viewBox="0 0 256 256" id="tree">
      <path fill="currentColor"
        d="M168 110h48a14 14 0 0 0 14-14V48a14 14 0 0 0-14-14h-48a14 14 0 0 0-14 14v18h-10a30 30 0 0 0-30 30v26H78v-10a14 14 0 0 0-14-14H32a14 14 0 0 0-14 14v32a14 14 0 0 0 14 14h32a14 14 0 0 0 14-14v-10h36v26a30 30 0 0 0 30 30h10v18a14 14 0 0 0 14 14h48a14 14 0 0 0 14-14v-48a14 14 0 0 0-14-14h-48a14 14 0 0 0-14 14v18h-10a18 18 0 0 1-18-18V96a18 18 0 0 1 18-18h10v18a14 14 0 0 0 14 14ZM66 144a2 2 0 0 1-2 2H32a2 2 0 0 1-2-2v-32a2 2 0 0 1 2-2h32a2 2 0 0 1 2 2Zm100 16a2 2 0 0 1 2-2h48a2 2 0 0 1 2 2v48a2 2 0 0 1-2 2h-48a2 2 0 0 1-2-2Zm0-112a2 2 0 0 1 2-2h48a2 2 0 0 1 2 2v48a2 2 0 0 1-2 2h-48a2 2 0 0 1-2-2Z" />
    </symbol>


    <symbol viewBox="0 0 24 24" id="play">
      <svg xmlns="http://www.w3.org/2000/svg" width="24" height="24" viewBox="0 0 24 24">
        <path fill="currentColor" d="M8 19V5l11 7l-11 7Z" />
      </svg>
    </symbol>


    <symbol viewBox="0 0 256 256" id="microPhoneOn">
      <svg xmlns="http://www.w3.org/2000/svg" width="256" height="256" viewBox="0 0 256 256">
        <path fill="currentColor"
          d="M128 174a46.06 46.06 0 0 0 46-46V64a46 46 0 0 0-92 0v64a46.06 46.06 0 0 0 46 46ZM94 64a34 34 0 0 1 68 0v64a34 34 0 0 1-68 0Zm40 141.75V232a6 6 0 0 1-12 0v-26.25A78.09 78.09 0 0 1 50 128a6 6 0 0 1 12 0a66 66 0 0 0 132 0a6 6 0 0 1 12 0a78.09 78.09 0 0 1-72 77.75Z" />
      </svg>
    </symbol>

    <symbol viewBox="0 0 256 256" id="clock">
      <svg xmlns="http://www.w3.org/2000/svg" width="256" height="256" viewBox="0 0 256 256">
        <path fill="currentColor"
          d="M128 24a104 104 0 1 0 104 104A104.11 104.11 0 0 0 128 24Zm0 192a88 88 0 1 1 88-88a88.1 88.1 0 0 1-88 88Zm64-88a8 8 0 0 1-8 8h-56a8 8 0 0 1-8-8V72a8 8 0 0 1 16 0v48h48a8 8 0 0 1 8 8Z" />
      </svg>
    </symbol>

    <symbol viewBox="0 0 24 24" id="rightSubArrow">
      <path fill="none" stroke="currentColor" stroke-linecap="round" stroke-linejoin="round"
        stroke-width="1"
        d="m13 11l5 5m0 0l-5 5m5-5h-7.803c-1.118 0-1.678 0-2.105-.218a2 2 0 0 1-.874-.874C7 14.48 7 13.92 7 12.8V3" />
    </symbol>


    <symbol viewBox="0 0 256 256" id="microPhoneOff">
      <path fill="currentColor"
        d="m213.92 210.62l-160-176a8 8 0 1 0-11.84 10.76L80 87.09V128a48 48 0 0 0 73.91 40.4l10.88 12A64 64 0 0 1 64 128a8 8 0 0 0-16 0a80.11 80.11 0 0 0 72 79.6V232a8 8 0 0 0 16 0v-24.41a79.74 79.74 0 0 0 39.62-15.31l26.46 29.1a8 8 0 1 0 11.84-10.76ZM128 160a32 32 0 0 1-32-32v-23.31l46.92 51.62A32 32 0 0 1 128 160ZM87.16 38.78A48 48 0 0 1 176 64v60.43a8 8 0 0 1-16 0V64a32 32 0 0 0-59.24-16.81a8 8 0 1 1-13.6-8.41Zm100.48 112.49A63.71 63.71 0 0 0 192 128a8 8 0 0 1 16 0a79.62 79.62 0 0 1-5.46 29.09a8 8 0 1 1-14.9-5.82Z" />
    </symbol>


    <symbol viewBox="0 0 32 32" id="idea">
      <path fill="currentColor"
        d="M11 24h10v2H11zm2 4h6v2h-6zm3-26A10 10 0 0 0 6 12a9.19 9.19 0 0 0 3.46 7.62c1 .93 1.54 1.46 1.54 2.38h2c0-1.84-1.11-2.87-2.19-3.86A7.2 7.2 0 0 1 8 12a8 8 0 0 1 16 0a7.2 7.2 0 0 1-2.82 6.14c-1.07 1-2.18 2-2.18 3.86h2c0-.92.53-1.45 1.54-2.39A9.18 9.18 0 0 0 26 12A10 10 0 0 0 16 2z" />
    </symbol>

    <symbol viewBox="0 0 24 24" id="addCircle">
      <path fill="white"
        d="M11 13v3q0 .425.288.713T12 17q.425 0 .713-.288T13 16v-3h3q.425 0 .713-.288T17 12q0-.425-.288-.713T16 11h-3V8q0-.425-.288-.713T12 7q-.425 0-.713.288T11 8v3H8q-.425 0-.713.288T7 12q0 .425.288.713T8 13h3Zm1 9q-2.075 0-3.9-.788t-3.175-2.137q-1.35-1.35-2.137-3.175T2 12q0-2.075.788-3.9t2.137-3.175q1.35-1.35 3.175-2.137T12 2q2.075 0 3.9.788t3.175 2.137q1.35 1.35 2.138 3.175T22 12q0 2.075-.788 3.9t-2.137 3.175q-1.35 1.35-3.175 2.138T12 22Zm0-2q3.35 0 5.675-2.325T20 12q0-3.35-2.325-5.675T12 4Q8.65 4 6.325 6.325T4 12q0 3.35 2.325 5.675T12 20Zm0-8Z" />
    </symbol>

    <symbol viewBox="0 0 24 24" id="collapseTree">
      <svg xmlns="http://www.w3.org/2000/svg" width="24" height="24" viewBox="0 0 24 24">
        <g transform="rotate(90 12 12)">
          <path fill="currentColor"
            d="M5.41 7.41L10 12l-4.59 4.59L4 15.17L7.17 12L4 8.83l1.41-1.42m13.18 9.18L14 12l4.59-4.58L20 8.83L16.83 12L20 15.17l-1.41 1.42Z" />
        </g>
      </svg>
    </symbol>

    <symbol viewBox="0 0 24 24" id="rowView">
      <g fill="currentColor">
        <path d="M6 11a1 1 0 1 0 0 2h8a1 1 0 1 0 0-2H6Zm0 4a1 1 0 1 0 0 2h8a1 1 0 1 0 0-2H6Z"
          opacity=".5" />
        <path d="M5 8a1 1 0 0 1 1-1h12a1 1 0 1 1 0 2H6a1 1 0 0 1-1-1Z" />
      </g>
    </symbol>

    <symbol viewBox="0 0 24 24" id="columnView">
      <path fill="currentColor"
        d="M18.44 3.06H5.56a2.507 2.507 0 0 0-2.5 2.5v12.88a2.514 2.514 0 0 0 2.5 2.5h12.88a2.514 2.514 0 0 0 2.5-2.5V5.56a2.507 2.507 0 0 0-2.5-2.5ZM8.67 19.94H5.56a1.511 1.511 0 0 1-1.5-1.5V5.56a1.5 1.5 0 0 1 1.5-1.5h3.11Zm1-15.88h4.66v15.88H9.67Zm10.27 14.38a1.511 1.511 0 0 1-1.5 1.5h-3.11V4.06h3.11a1.5 1.5 0 0 1 1.5 1.5Z" />
    </symbol>

    <symbol viewBox="0 0 24 24" id="treeLeft">
      <svg xmlns="http://www.w3.org/2000/svg" width="24" height="24" viewBox="0 0 48 48">
        <path fill="currentColor"
          d="M10.25 7A6.25 6.25 0 0 0 4 13.25v21.5A6.25 6.25 0 0 0 10.25 41h27.5A6.25 6.25 0 0 0 44 34.75v-21.5A6.25 6.25 0 0 0 37.75 7h-27.5ZM6.5 13.25a3.75 3.75 0 0 1 3.75-3.75h5.5v29h-5.5a3.75 3.75 0 0 1-3.75-3.75v-21.5ZM18.25 38.5v-29h19.5a3.75 3.75 0 0 1 3.75 3.75v21.5a3.75 3.75 0 0 1-3.75 3.75h-19.5Z" />
      </svg>
    </symbol>

    <symbol viewBox="0 0 24 24" id="collapseLeft">
      <path fill="currentColor"
        d="M11.92 19.92L4 12l7.92-7.92l1.41 1.42l-5.5 5.5H22v2H7.83l5.51 5.5l-1.42 1.42M4 12V2H2v20h2V12Z" />
    </symbol>


    <symbol viewBox="0 0 24 24" id="expandRight">
      <path fill="currentColor"
        d="M12.08 4.08L20 12l-7.92 7.92l-1.41-1.42l5.5-5.5H2v-2h14.17l-5.5-5.5l1.41-1.42M20 12v10h2V2h-2v10Z" />
    </symbol>


    <symbol viewBox="0 0 24 24" id="expandLeft">
      <path fill="currentColor" fill-rule="evenodd"
        d="M18.028 9.964a.75.75 0 0 0-.75-.75h-2.492V6.722a.75.75 0 0 0-1.5 0v3.242c0 .415.335.75.75.75h3.242a.75.75 0 0 0 .75-.75Zm-3.992 8.064a.75.75 0 0 0 .75-.75v-2.493h2.492a.75.75 0 0 0 0-1.5h-3.242a.75.75 0 0 0-.75.75v3.243c0 .414.335.75.75.75Zm-4.072 0a.75.75 0 0 1-.75-.75v-2.493H6.722a.75.75 0 0 1 0-1.5h3.242a.75.75 0 0 1 .75.75v3.243a.75.75 0 0 1-.75.75ZM5.972 9.964a.75.75 0 0 1 .75-.75h2.492V6.722a.75.75 0 0 1 1.5 0v3.242a.75.75 0 0 1-.75.75H6.722a.75.75 0 0 1-.75-.75Z"
        clip-rule="evenodd" />
    </symbol>


    <symbol viewBox="0 0 24 24" id="experimental">
      <path fill="none" stroke="currentColor" stroke-linecap="round" stroke-linejoin="round"
        d="M9 .5v6l3.59 4.57a1.5 1.5 0 0 1-1.18 2.43H2.59a1.5 1.5 0 0 1-1.18-2.43L5 6.5v-6M3.5.5h7" />
    </symbol>
    <symbol viewBox="0 0 24 24" id="code">
      <svg xmlns="http://www.w3.org/2000/svg" width="24" height="24" viewBox="0 0 24 24">
        <path fill="currentColor"
          d="M9.4 16.6L4.8 12l4.6-4.6L8 6l-6 6l6 6l1.4-1.4zm5.2 0l4.6-4.6l-4.6-4.6L16 6l6 6l-6 6l-1.4-1.4z" />
      </svg>
    </symbol>

    <symbol viewBox="0 0 24 24" id="info">
      <g transform="translate(24 0) scale(-1 1)">
        <path fill="currentColor"
          d="M12 17q.425 0 .713-.288T13 16v-4q0-.425-.288-.713T12 11q-.425 0-.713.288T11 12v4q0 .425.288.713T12 17Zm0-8q.425 0 .713-.288T13 8q0-.425-.288-.713T12 7q-.425 0-.713.288T11 8q0 .425.288.713T12 9Zm0 13q-2.075 0-3.9-.788t-3.175-2.137q-1.35-1.35-2.137-3.175T2 12q0-2.075.788-3.9t2.137-3.175q1.35-1.35 3.175-2.137T12 2q2.075 0 3.9.788t3.175 2.137q1.35 1.35 2.138 3.175T22 12q0 2.075-.788 3.9t-2.137 3.175q-1.35 1.35-3.175 2.138T12 22Zm0-2q3.35 0 5.675-2.325T20 12q0-3.35-2.325-5.675T12 4Q8.65 4 6.325 6.325T4 12q0 3.35 2.325 5.675T12 20Zm0-8Z" />
      </g>
    </symbol>

    <symbol viewBox="0 0 24 24" id="assetManager">
      <path fill="currentColor"
        d="M18 13v7H4V6h5.02c.05-.71.22-1.38.48-2H4c-1.1 0-2 .9-2 2v14c0 1.1.9 2 2 2h14c1.1 0 2-.9 2-2v-5l-2-2zm-1.5 5h-11l2.75-3.53l1.96 2.36l2.75-3.54zm2.8-9.11c.44-.7.7-1.51.7-2.39C20 4.01 17.99 2 15.5 2S11 4.01 11 6.5s2.01 4.5 4.49 4.5c.88 0 1.7-.26 2.39-.7L21 13.42L22.42 12L19.3 8.89zM15.5 9a2.5 2.5 0 0 1 0-5a2.5 2.5 0 0 1 0 5z" />
    </symbol>


    <symbol viewBox="0 0 24 24" id="download">
      <path fill="currentColor"
        d="M6 20q-.825 0-1.413-.588T4 18v-3h2v3h12v-3h2v3q0 .825-.588 1.413T18 20H6Zm6-4l-5-5l1.4-1.45l2.6 2.6V4h2v8.15l2.6-2.6L17 11l-5 5Z" />
    </symbol>


    <symbol viewBox="0 0 24 24" id="invert">
      <path fill="currentColor"
        d="M3 15v2h2v-2m10 4v2h2v-2m2-16H5c-1.1 0-2 .9-2 2v4h2V5h14v4h2V5c0-1.1-.9-2-2-2m2 16h-2v2c1.1 0 2-.9 2-2M1 11v2h22v-2M7 19v2h2v-2m10-4v2h2v-2m-10 4v2h2v-2M3 19c0 1.1.9 2 2 2v-2Z" />
    </symbol>


    <symbol viewBox="0 0 24 24" id="XXL">
      <path fill-rule="evenodd" clip-rule="evenodd"
        d="M1 2a1 1 0 00-1 1v13a1 1 0 001 1h22a1 1 0 001-1V3a1 1 0 00-1-1H1zm22 1H1v12h22V3z"
        fill="currentColor"></path>
      <path fill-rule="evenodd" clip-rule="evenodd"
        d="M1 2a1 1 0 00-1 1v13a1 1 0 001 1h22a1 1 0 001-1V3a1 1 0 00-1-1H1zm22 1H1v12h22V3z"
        fill="currentColor"></path>
      <path fill="currentColor" d="M10 19h4v2h-4zm6 0h4v2h-4zM4 19h4v2H4z"></path>
      <path opacity=".6" fill="currentColor" d="M2 4h20v10H2z"></path>

    </symbol>


    <symbol viewBox="0 0 24 24" id="refresh">
      <path fill="currentColor"
        d="M17.65 6.35A7.958 7.958 0 0 0 12 4c-4.42 0-7.99 3.58-7.99 8s3.57 8 7.99 8c3.73 0 6.84-2.55 7.73-6h-2.08A5.99 5.99 0 0 1 12 18c-3.31 0-6-2.69-6-6s2.69-6 6-6c1.66 0 3.14.69 4.22 1.78L13 11h7V4l-2.35 2.35z" />
    </symbol>


    <symbol viewBox="0 0 24 24" id="add">
      <path fill="currentColor" d="M11 19v-6H5v-2h6V5h2v6h6v2h-6v6h-2Z" />
    </symbol>


    <symbol viewBox="0 0 24 24" id="hide">
      <path fill="currentColor"
        d="M2 5.27L3.28 4L20 20.72L18.73 22l-3.08-3.08c-1.15.38-2.37.58-3.65.58c-5 0-9.27-3.11-11-7.5c.69-1.76 1.79-3.31 3.19-4.54L2 5.27M12 9a3 3 0 0 1 3 3a3 3 0 0 1-.17 1L11 9.17A3 3 0 0 1 12 9m0-4.5c5 0 9.27 3.11 11 7.5a11.79 11.79 0 0 1-4 5.19l-1.42-1.43A9.862 9.862 0 0 0 20.82 12A9.821 9.821 0 0 0 12 6.5c-1.09 0-2.16.18-3.16.5L7.3 5.47c1.44-.62 3.03-.97 4.7-.97M3.18 12A9.821 9.821 0 0 0 12 17.5c.69 0 1.37-.07 2-.21L11.72 15A3.064 3.064 0 0 1 9 12.28L5.6 8.87c-.99.85-1.82 1.91-2.42 3.13Z" />
    </symbol>

    <symbol viewBox="0 0 24 24" id="launch">
      <path fill="currentColor"
        d="m21.999 18.676l-4.432-2.556l-4.783 2.764V24l9.215-5.324zM11.216 24v-5.119l-4.785-2.762l-4.43 2.557L11.216 24zm.779-6.475l4.789-2.765V9.236l-4.785-2.76l-4.783 2.76v5.527l4.781 2.761l-.002.001zM1.22 6.682v10.641l4.432-2.559V9.239L1.219 6.68l.001.002zm19.615 1.121l-2.484 1.436v5.522l4.43 2.559V6.678l-1.946 1.125zM2.001 5.324l4.435 2.559l4.781-2.762V.003L2.001 5.324zm15.566 2.559l4.434-2.559L12.782 0v5.121l4.785 2.762z" />
    </symbol>


    <symbol viewBox="0 0 24 24" id="minus">
      <path fill="currentColor" d="M19 12.998H5v-2h14z" />
    </symbol>


    <symbol viewBox="0 0 24 24" id="XL">
      <path fill-rule="evenodd" clip-rule="evenodd"
        d="M3 2a1 1 0 00-1 1v13a1 1 0 001 1h18a1 1 0 001-1V3a1 1 0 00-1-1H3zm18 1H3v12h18V3z"
        fill="currentColor"></path>
      <path fill="currentColor" d="M13 19h4v2h-4zm-6 0h4v2H7z"></path>
      <path opacity=".6" fill="currentColor" d="M4 4h16v10H4z"></path>
    </symbol>


    <symbol viewBox="0 0 24 24" id="L">
      <path fill-rule="evenodd" clip-rule="evenodd"
        d="M4 2a1 1 0 00-1 1v13a1 1 0 001 1h16a1 1 0 001-1V3a1 1 0 00-1-1H4zm16 1H4v12h16V3z"
        fill="currentColor"></path>
      <path opacity=".6" fill="currentColor" d="M5 4h14v10H5z"></path>
      <path fill="currentColor" d="M10 19h4v2h-4z"></path>
    </symbol>


    <symbol viewBox="0 0 24 24" id="tablet">
      <path fill-rule="evenodd" clip-rule="evenodd"
        d="M4 4a1 1 0 011-1h14a1 1 0 011 1v16a1 1 0 01-1 1H5a1 1 0 01-1-1V4zm7 15a1 1 0 112 0 1 1 0 01-2 0zm8-15H5v13h14V4z"
        fill="currentColor"></path>
      <path opacity=".6" fill="currentColor" d="M6 5h12v11H6z"></path>
    </symbol>


    <symbol viewBox="0 0 24 24" id="zoomOut">
      <path fill="currentColor"
        d="M15.5 14h-.79l-.28-.27A6.471 6.471 0 0 0 16 9.5A6.5 6.5 0 0 0 9.5 3A6.5 6.5 0 0 0 3 9.5A6.5 6.5 0 0 0 9.5 16c1.61 0 3.09-.59 4.23-1.57l.27.28v.79l5 5l1.5-1.5l-5-5m-6 0C7 14 5 12 5 9.5S7 5 9.5 5S14 7 14 9.5S12 14 9.5 14M7 9h5v1H7V9Z" />
    </symbol>

    <symbol viewBox="0 0 24 24" id="zoomIn">
      <path fill="currentColor"
        d="M15.5 14h-.79l-.28-.27a6.5 6.5 0 0 0 1.48-5.34c-.47-2.78-2.79-5-5.59-5.34c-4.23-.52-7.78 3.04-7.27 7.27c.34 2.8 2.56 5.12 5.34 5.59a6.5 6.5 0 0 0 5.34-1.48l.27.28v.79l4.26 4.25c.41.41 1.07.41 1.48 0l.01-.01c.41-.41.41-1.07 0-1.48L15.5 14zm-6 0C7.01 14 5 11.99 5 9.5S7.01 5 9.5 5S14 7.01 14 9.5S11.99 14 9.5 14zm0-7c-.28 0-.5.22-.5.5V9H7.5c-.28 0-.5.22-.5.5s.22.5.5.5H9v1.5c0 .28.22.5.5.5s.5-.22.5-.5V10h1.5c.28 0 .5-.22.5-.5s-.22-.5-.5-.5H10V7.5c0-.28-.22-.5-.5-.5z" />
    </symbol>

    <symbol viewBox="0 0 24 24" id="side">
      <path fill-rule="evenodd" clip-rule="evenodd"
        d="M4 18a1 1 0 01-1-1V7a1 1 0 011-1h16a1 1 0 011 1v10a1 1 0 01-1 1H4zm15-5a1 1 0 110-2 1 1 0 010 2zM4 7v10h13V7H4z"
        fill="currentColor"></path>
      <path opacity=".6" fill="currentColor" d="M5 16V8h11v8z"></path>
    </symbol>

    <symbol viewBox="0 0 24 24" id="phone">
      <path fill-rule="evenodd" clip-rule="evenodd"
        d="M6 4a1 1 0 011-1h10a1 1 0 011 1v16a1 1 0 01-1 1H7a1 1 0 01-1-1V4zm5 15a1 1 0 112 0 1 1 0 01-2 0zm6-15H7v13h10V4z"
        fill="currentColor"></path>
      <path opacity=".6" fill="currentColor" d="M8 5h8v11H8z"></path>
    </symbol>


    <symbol viewBox="0 0 24 24" id="dots">
      <path fill="currentColor"
        d="M12 16a2 2 0 0 1 2 2a2 2 0 0 1-2 2a2 2 0 0 1-2-2a2 2 0 0 1 2-2m0-6a2 2 0 0 1 2 2a2 2 0 0 1-2 2a2 2 0 0 1-2-2a2 2 0 0 1 2-2m0-6a2 2 0 0 1 2 2a2 2 0 0 1-2 2a2 2 0 0 1-2-2a2 2 0 0 1 2-2Z" />
    </symbol>

    <symbol viewBox="0 0 24 24" id="calculator">
      <path fill="currentColor"
        d="M19 3H5c-1.1 0-2 .9-2 2v14c0 1.1.9 2 2 2h14c1.1 0 2-.9 2-2V5c0-1.1-.9-2-2-2m0 16H5V5h14v14M6.2 7.7h5v1.5h-5V7.7m6.8 8.1h5v1.5h-5v-1.5m0-2.6h5v1.5h-5v-1.5M8 18h1.5v-2h2v-1.5h-2v-2H8v2H6V16h2v2m6.1-7.1l1.4-1.4l1.4 1.4l1.1-1l-1.4-1.4L18 7.1L16.9 6l-1.4 1.4L14.1 6L13 7.1l1.4 1.4L13 9.9l1.1 1Z" />
    </symbol>

    <symbol viewBox="0 0 24 24" id="upload">
      <path fill="currentColor"
        d="M12 16q-.425 0-.713-.288T11 15V7.85L9.125 9.725q-.3.3-.7.3T7.7 9.7q-.3-.3-.287-.712T7.7 8.3l3.6-3.6q.15-.15.325-.212T12 4.425q.2 0 .375.063t.325.212l3.6 3.6q.3.3.288.713T16.3 9.7q-.3.3-.713.313t-.712-.288L13 7.85V15q0 .425-.288.713T12 16Zm-6 4q-.825 0-1.413-.588T4 18v-2q0-.425.288-.713T5 15q.425 0 .713.288T6 16v2h12v-2q0-.425.288-.713T19 15q.425 0 .713.288T20 16v2q0 .825-.588 1.413T18 20H6Z" />
    </symbol>

    <symbol viewBox="0 0 24 24" id="zip">
      <path fill="currentColor"
        d="M211.89 119.09a4 4 0 0 0-2.49-2.84l-60.81-22.8l15.33-76.67a4 4 0 0 0-6.84-3.51l-112 120a4 4 0 0 0-1 3.64a4 4 0 0 0 2.49 2.84l60.81 22.8l-15.3 76.67a4 4 0 0 0 6.84 3.51l112-120a4 4 0 0 0 .97-3.64ZM102.68 227l13.24-66.2a4 4 0 0 0-2.52-4.53L55 134.36L153.32 29l-13.24 66.2a4 4 0 0 0 2.52 4.53l58.4 21.91Z" />
    </symbol>
    <symbol viewBox="0 0 24 24" id="downChevron">
      <path fill="currentColor"
        d="M12 14.975q-.2 0-.388-.075t-.312-.2l-4.6-4.6q-.275-.275-.275-.7t.275-.7q.275-.275.7-.275t.7.275l3.9 3.9l3.9-3.9q.275-.275.7-.275t.7.275q.275.275.275.7t-.275.7l-4.6 4.6q-.15.15-.325.213t-.375.062Z" />
    </symbol>


    <symbol viewBox="0 0 24 24" id="copy">
      <path fill="currentColor"
        d="M216 32H88a8 8 0 0 0-8 8v40H40a8 8 0 0 0-8 8v128a8 8 0 0 0 8 8h128a8 8 0 0 0 8-8v-40h40a8 8 0 0 0 8-8V40a8 8 0 0 0-8-8Zm-56 176H48V96h112Zm48-48h-32V88a8 8 0 0 0-8-8H96V48h112Z" />
    </symbol>

    <symbol viewBox="0 0 24 24" id="builder">
      <path fill="currentColor"
        d="M21 14v5a2 2 0 0 1-2 2H5a2 2 0 0 1-2-2V5a2 2 0 0 1 2-2h5v2H5v14h14v-5h2z" />
      <path fill="currentColor" d="M21 7h-4V3h-2v4h-4v2h4v4h2V9h4z" />
    </symbol>

    <symbol viewBox="0 0 24 24" id="source">
      <path fill="currentColor"
        d="M3 21v-6h2v4h4v2H3Zm12 0v-2h4v-4h2v6h-6Zm-6.4-5.4L5 12l3.6-3.6L10 9.825L7.825 12L10 14.175L8.6 15.6Zm6.8 0L14 14.175L16.175 12L14 9.825L15.4 8.4L19 12l-3.6 3.6ZM3 9V3h6v2H5v4H3Zm16 0V5h-4V3h6v6h-2Z" />
    </symbol>

    <symbol viewBox="0 0 24 24" id="handle">
      <path fill="currentColor" d="M4 9h16v2H4zm0 4h16v2H4z" />
    </symbol>

    <symbol viewBox="0 0 24 24" id="todo">
      <path fill="currentColor"
        d="M10.28 5.28L7 8.563l-1.28-1.28L4.28 8.72l2 2l.72.686l.72-.687l4-4l-1.44-1.44zM15 7v2h13V7H15zm-4.72 6.28L7 16.564L5.72 15.28l-1.44 1.44l2 2l.72.686l.72-.687l4-4l-1.44-1.44zM15 15v2h13v-2H15zm-4.72 6.28L7 24.563l-1.28-1.28l-1.44 1.437l2 2l.72.686l.72-.687l4-4l-1.44-1.44zM15 23v2h13v-2H15z" />
    </symbol>


    <symbol viewBox="0 0 24 24" id="reset">
      <g fill="none" fill-rule="evenodd" stroke="currentColor" stroke-linecap="round"
        stroke-linejoin="round">
        <path d="M14.5 3.5c2.414 1.377 4 4.022 4 7a8 8 0 1 1-8-8" />
        <path d="M14.5 7.5v-4h4" />
      </g>
    </symbol>

    <symbol viewBox="0 0 24 24" id="collapse">
      <path fill="currentColor"
        d="M8 19h3v4h2v-4h3l-4-4l-4 4m8-14h-3V1h-2v4H8l4 4l4-4M4 11v2h16v-2H4Z" />
    </symbol>


    <symbol viewBox="0 0 24 24" id="expand">
      <path fill="currentColor" d="M4 20h16v2H4zM4 2h16v2H4zm9 7h3l-4-4l-4 4h3v6H8l4 4l4-4h-3z" />
    </symbol>

    <symbol viewBox="0 0 24 24" id="expandHorizontal">
      <path fill="currentColor"
        d="M9 11h6V8l4 4l-4 4v-3H9v3l-4-4l4-4v3m-7 9V4h2v16H2m18 0V4h2v16h-2Z" />
    </symbol>


    <symbol viewBox="0 0 24 24" id="plus">
      <path fill="currentColor" d="M11 19v-6H5v-2h6V5h2v6h6v2h-6v6h-2Z" />
    </symbol>

    <symbol viewBox="0 0 24 24" id="upChevron">
      <svg xmlns="http://www.w3.org/2000/svg" width="24" height="24" viewBox="0 0 24 24">
        <path fill="currentColor"
          d="M8.12 14.71L12 10.83l3.88 3.88a.996.996 0 1 0 1.41-1.41L12.7 8.71a.996.996 0 0 0-1.41 0L6.7 13.3a.996.996 0 0 0 0 1.41c.39.38 1.03.39 1.42 0z" />
      </svg>
    </symbol>

    <symbol viewBox="0 0 24 24" id="save">
      <path fill="currentColor"
        d="M19 12v7H5v-7H3v7c0 1.1.9 2 2 2h14c1.1 0 2-.9 2-2v-7h-2zm-6 .67l2.59-2.58L17 11.5l-5 5l-5-5l1.41-1.41L11 12.67V3h2v9.67z" />
    </symbol>


    <symbol viewBox="0 0 24 24" id="componentHandle">
      <path fill="currentColor"
        d="M5 11q-.825 0-1.413-.588T3 9V5q0-.825.588-1.413T5 3h4q.825 0 1.413.588T11 5v4q0 .825-.588 1.413T9 11H5Zm0 10q-.825 0-1.413-.588T3 19v-4q0-.825.588-1.413T5 13h4q.825 0 1.413.588T11 15v4q0 .825-.588 1.413T9 21H5Zm10-10q-.825 0-1.413-.588T13 9V5q0-.825.588-1.413T15 3h4q.825 0 1.413.588T21 5v4q0 .825-.588 1.413T19 11h-4Zm0 10q-.825 0-1.413-.588T13 19v-4q0-.825.588-1.413T15 13h4q.825 0 1.413.588T21 15v4q0 .825-.588 1.413T19 21h-4ZM5 9h4V5H5v4Zm10 0h4V5h-4v4Zm0 10h4v-4h-4v4ZM5 19h4v-4H5v4ZM15 9Zm0 6Zm-6 0Zm0-6Z" />
    </symbol>


    <symbol viewBox="0 0 24 24" id="check">
      <path fill="currentColor"
        d="m10 13.6l5.9-5.9q.275-.275.7-.275t.7.275q.275.275.275.7t-.275.7l-6.6 6.6q-.3.3-.7.3t-.7-.3l-2.6-2.6q-.275-.275-.275-.7t.275-.7q.275-.275.7-.275t.7.275l1.9 1.9Z" />
    </symbol>

    <symbol viewBox="0 0 24 24" id="cheveron-down">
      <path stroke="none" d="M0 0h24v24H0z" fill="currentColor" />
      <polyline points="6 9 12 15 18 9" />
    </symbol>


    <symbol viewBox="0 0 24 24" id="edit">
      <path fill="currentColor" stroke-width='1px'
        d="M5 19h1.4l8.625-8.625l-1.4-1.4L5 17.6V19ZM19.3 8.925l-4.25-4.2l1.4-1.4q.575-.575 1.413-.575t1.412.575l1.4 1.4q.575.575.6 1.388t-.55 1.387L19.3 8.925ZM17.85 10.4L7.25 21H3v-4.25l10.6-10.6l4.25 4.25Zm-3.525-.725l-.7-.7l1.4 1.4l-.7-.7Z" />
    </symbol>

    <symbol viewBox="0 0 24 24" id="add">
      <path fill="currentColor"
        d="M11 17h2v-4h4v-2h-4V7h-2v4H7v2h4v4Zm1 5q-2.075 0-3.9-.788t-3.175-2.137q-1.35-1.35-2.137-3.175T2 12q0-2.075.788-3.9t2.137-3.175q1.35-1.35 3.175-2.137T12 2q2.075 0 3.9.788t3.175 2.137q1.35 1.35 2.138 3.175T22 12q0 2.075-.788 3.9t-2.137 3.175q-1.35 1.35-3.175 2.138T12 22Zm0-2q3.35 0 5.675-2.325T20 12q0-3.35-2.325-5.675T12 4Q8.65 4 6.325 6.325T4 12q0 3.35 2.325 5.675T12 20Zm0-8Z" />
    </symbol>


    <symbol viewBox="0 0 24 24" id="nav">
      <path
        d="M7.5 2.8125V3.78472H0V2.8125H7.5ZM0 6.70139H15V7.67361H0V6.70139ZM7.5 11.5625V10.5903H15V11.5625H7.5Z"
        fill="#8B8B8B" />
    </symbol>


    <symbol viewBox="0 0 24 24" id="XL">
      <path fill-rule="evenodd" clip-rule="evenodd"
        d="M3 2a1 1 0 00-1 1v13a1 1 0 001 1h18a1 1 0 001-1V3a1 1 0 00-1-1H3zm18 1H3v12h18V3z"
        fill="currentColor"></path>
      <path fill="currentColor" d="M13 19h4v2h-4zm-6 0h4v2H7z"></path>
      <path opacity=".6" fill="currentColor" d="M4 4h16v10H4z"></path>
    </symbol>


    <symbol viewBox="0 0 24 24" id="L">
      <path fill-rule="evenodd" clip-rule="evenodd"
        d="M4 2a1 1 0 00-1 1v13a1 1 0 001 1h16a1 1 0 001-1V3a1 1 0 00-1-1H4zm16 1H4v12h16V3z"
        fill="currentColor"></path>
      <path opacity=".6" fill="currentColor" d="M5 4h14v10H5z"></path>
      <path fill="currentColor" d="M10 19h4v2h-4z"></path>
    </symbol>


    <symbol viewBox="0 0 24 24" id="tablet">
      <path fill-rule="evenodd" clip-rule="evenodd"
        d="M4 4a1 1 0 011-1h14a1 1 0 011 1v16a1 1 0 01-1 1H5a1 1 0 01-1-1V4zm7 15a1 1 0 112 0 1 1 0 01-2 0zm8-15H5v13h14V4z"
        fill="currentColor"></path>
      <path opacity=".6" fill="currentColor" d="M6 5h12v11H6z"></path>
    </symbol>


    <symbol viewBox="0 0 24 24" id="side">
      <path fill-rule="evenodd" clip-rule="evenodd"
        d="M4 18a1 1 0 01-1-1V7a1 1 0 011-1h16a1 1 0 011 1v10a1 1 0 01-1 1H4zm15-5a1 1 0 110-2 1 1 0 010 2zM4 7v10h13V7H4z"
        fill="currentColor"></path>
      <path opacity=".6" fill="currentColor" d="M5 16V8h11v8z"></path>
    </symbol>

    <symbol viewBox="0 0 24 24" id="phone">
      <path fill-rule="evenodd" clip-rule="evenodd"
        d="M6 4a1 1 0 011-1h10a1 1 0 011 1v16a1 1 0 01-1 1H7a1 1 0 01-1-1V4zm5 15a1 1 0 112 0 1 1 0 01-2 0zm6-15H7v13h10V4z"
        fill="currentColor"></path>
      <path opacity=".6" fill="currentColor" d="M8 5h8v11H8z"></path>
    </symbol>

    <symbol viewBox="0 0 24 24" id="icon-1">
      <path
        d="M6.84 5.76L8.4 7.68H5.28l-.72 2.88H2.64l.72-2.88H1.44L0 13.44h3.84l-.48 1.92h3.36L4.2 18.24h2.82l2.34-2.88h5.28l2.34 2.88h2.82l-2.52-2.88h3.36l-.48-1.92H24l-1.44-5.76h-1.92l.72 2.88h-1.92l-.72-2.88H15.6l1.56-1.92h-2.04l-1.68 1.92h-2.88L8.88 5.76zm.24 3.84H9v1.92H7.08zm7.925 0h1.92v1.92h-1.92Z" />
    </symbol>

    <symbol viewBox="0 0 24 24" id="close">
      <path
        d="M6.2253 4.81108C5.83477 4.42056 5.20161 4.42056 4.81108 4.81108C4.42056 5.20161 4.42056 5.83477 4.81108 6.2253L10.5858 12L4.81114 17.7747C4.42062 18.1652 4.42062 18.7984 4.81114 19.1889C5.20167 19.5794 5.83483 19.5794 6.22535 19.1889L12 13.4142L17.7747 19.1889C18.1652 19.5794 18.7984 19.5794 19.1889 19.1889C19.5794 18.7984 19.5794 18.1652 19.1889 17.7747L13.4142 12L19.189 6.2253C19.5795 5.83477 19.5795 5.20161 19.189 4.81108C18.7985 4.42056 18.1653 4.42056 17.7748 4.81108L12 10.5858L6.2253 4.81108Z"
        fill="currentColor"
      />
    </symbol>


    <symbol viewBox="0 0 24 24" id="XXL">
      <path fill-rule="evenodd" clip-rule="evenodd"
        d="M1 2a1 1 0 00-1 1v13a1 1 0 001 1h22a1 1 0 001-1V3a1 1 0 00-1-1H1zm22 1H1v12h22V3z"
        fill="currentColor"></path>
      <path fill-rule="evenodd" clip-rule="evenodd"
        d="M1 2a1 1 0 00-1 1v13a1 1 0 001 1h22a1 1 0 001-1V3a1 1 0 00-1-1H1zm22 1H1v12h22V3z"
        fill="currentColor"></path>
      <path fill="currentColor" d="M10 19h4v2h-4zm6 0h4v2h-4zM4 19h4v2H4z"></path>
      <path opacity=".6" fill="currentColor" d="M2 4h20v10H2z"></path>
    </symbol>


    <symbol viewBox="0 0 16 16" id="search">
      <path fill="grey"
        d="M15.53 14.47l-3.795-3.795A5.965 5.965 0 0013 7a6 6 0 10-6 6 5.97 5.97 0 003.675-1.264l3.795 3.795 1.06-1.06v-.001zM7 11.5c-2.48 0-4.5-2.02-4.5-4.5S4.52 2.5 7 2.5s4.5 2.02 4.5 4.5-2.02 4.5-4.5 4.5z"></path>
    </symbol>

    <symbol viewBox="0 0 24 24" id="subdirectory_arrow_right">
      <path d="M19 15l-6 6-1.42-1.42L15.17 16H4V4h2v10h9.17l-3.59-3.58L13 9l6 6z"
        fill="currentColor"></path>
    </symbol>

    <symbol viewBox="0 0 24 24" id="drop-down">
      <path
        d="M7.75745 10.5858L9.17166 9.17154L12.0001 12L14.8285 9.17157L16.2427 10.5858L12.0001 14.8284L7.75745 10.5858Z"
        fill="currentColor" />
      <path
        d="M6.34317 7.75732L4.92896 9.17154L12 16.2426L19.0711 9.17157L17.6569 7.75735L12 13.4142L6.34317 7.75732Z"
        fill="currentColor"
      />
    </symbol>

    <symbol viewBox="0 0 24 24" id="hashtag">
      <path
        fill-rule="evenodd"
        clip-rule="evenodd"
        d="M8 4V8H4V10H8V14H4V16H8V20H10V16H14V20H16V16H20V14H16V10H20V8H16V4H14V8H10V4H8ZM14 14V10H10V14H14Z"
        fill="currentColor"
      />
    </symbol>

    <symbol viewBox="0 0 24 24" id="attachment">
      <path
        d="M14 0C16.7614 0 19 2.23858 19 5V17C19 20.866 15.866 24 12 24C8.13401 24 5 20.866 5 17V9H7V17C7 19.7614 9.23858 22 12 22C14.7614 22 17 19.7614 17 17V5C17 3.34315 15.6569 2 14 2C12.3431 2 11 3.34315 11 5V17C11 17.5523 11.4477 18 12 18C12.5523 18 13 17.5523 13 17V6H15V17C15 18.6569 13.6569 20 12 20C10.3431 20 9 18.6569 9 17V5C9 2.23858 11.2386 0 14 0Z"
        fill="currentColor"
      />
    </symbol>


    <symbol viewBox="0 0 24 24" id="toolbar-bottom">
      <path
        fill-rule="evenodd"
        clip-rule="evenodd"
        d="M2 8C2 6.34315 3.34315 5 5 5H19C20.6569 5 22 6.34315 22 8V16C22 17.6569 20.6569 19 19 19H5C3.34315 19 2 17.6569 2 16V8ZM5 7H19C19.5523 7 20 7.44771 20 8V16C20 16.5523 19.5523 17 19 17H5C4.44772 17 4 16.5523 4 16V8C4 7.44772 4.44772 7 5 7Z"
        fill="currentColor"
      />
    </symbol>


    <symbol viewBox="0 0 24 24" id="toolbar-left">

      <path d="M8 9H6V15H8V9Z" fill="currentColor" />
      <path
        fill-rule="evenodd"
        clip-rule="evenodd"
        d="M2 8C2 6.34315 3.34315 5 5 5H19C20.6569 5 22 6.34315 22 8V16C22 17.6569 20.6569 19 19 19H5C3.34315 19 2 17.6569 2 16V8ZM5 7H19C19.5523 7 20 7.44771 20 8V16C20 16.5523 19.5523 17 19 17H5C4.44772 17 4 16.5523 4 16V8C4 7.44772 4.44772 7 5 7Z"
        fill="currentColor"
      />
    </symbol>

    <symbol viewBox="0 0 24 24" id="toolbar-top">

      <path d="M18 11H6V9H18V11Z" fill="currentColor" />
      <path
        fill-rule="evenodd"
        clip-rule="evenodd"
        d="M2 16C2 17.6569 3.34315 19 5 19H19C20.6569 19 22 17.6569 22 16V8C22 6.34315 20.6569 5 19 5H5C3.34315 5 2 6.34315 2 8V16ZM5 17H19C19.5523 17 20 16.5523 20 16V8C20 7.44772 19.5523 7 19 7H5C4.44772 7 4 7.44771 4 8V16C4 16.5523 4.44772 17 5 17Z"
        fill="currentColor"
      />

    </symbol>


    <symbol viewBox="0 0 24 24" id="search">
      <path
        fill-rule="evenodd"
        clip-rule="evenodd"
        d="M18.319 14.4326C20.7628 11.2941 20.542 6.75347 17.6569 3.86829C14.5327 0.744098 9.46734 0.744098 6.34315 3.86829C3.21895 6.99249 3.21895 12.0578 6.34315 15.182C9.22833 18.0672 13.769 18.2879 16.9075 15.8442C16.921 15.8595 16.9351 15.8745 16.9497 15.8891L21.1924 20.1317C21.5829 20.5223 22.2161 20.5223 22.6066 20.1317C22.9971 19.7412 22.9971 19.1081 22.6066 18.7175L18.364 14.4749C18.3493 14.4603 18.3343 14.4462 18.319 14.4326ZM16.2426 5.28251C18.5858 7.62565 18.5858 11.4246 16.2426 13.7678C13.8995 16.1109 10.1005 16.1109 7.75736 13.7678C5.41421 11.4246 5.41421 7.62565 7.75736 5.28251C10.1005 2.93936 13.8995 2.93936 16.2426 5.28251Z"
        fill="grey"
      />
    </symbol>


    <symbol viewBox="0 0 24 24" id="settings">

      <path
        fill-rule="evenodd"
        clip-rule="evenodd"
        d="M7 3C8.86384 3 10.4299 4.27477 10.874 6H19V8H10.874C10.4299 9.72523 8.86384 11 7 11C4.79086 11 3 9.20914 3 7C3 4.79086 4.79086 3 7 3ZM7 9C8.10457 9 9 8.10457 9 7C9 5.89543 8.10457 5 7 5C5.89543 5 5 5.89543 5 7C5 8.10457 5.89543 9 7 9Z"
        fill="currentColor"
      />
      <path
        fill-rule="evenodd"
        clip-rule="evenodd"
        d="M17 20C15.1362 20 13.5701 18.7252 13.126 17H5V15H13.126C13.5701 13.2748 15.1362 12 17 12C19.2091 12 21 13.7909 21 16C21 18.2091 19.2091 20 17 20ZM17 18C18.1046 18 19 17.1046 19 16C19 14.8954 18.1046 14 17 14C15.8954 14 15 14.8954 15 16C15 17.1046 15.8954 18 17 18Z"
        fill="currentColor"
      />
    </symbol>


    <symbol viewBox="0 0 24 24" id="trash">
      <path fill="currentColor"
        d="M6 19c0 1.1.9 2 2 2h8c1.1 0 2-.9 2-2V7H6v12zM8 9h8v10H8V9zm7.5-5l-1-1h-5l-1 1H5v2h14V4h-3.5z" />
    </symbol>


    <symbol viewBox="0 0 24 24" id="drop">
      <path
        d="M6.34315 19.5208C3.21895 16.3966 3.21895 11.3312 6.34315 8.20705L12 2.5502L17.6569 8.20705C20.781 11.3312 20.781 16.3966 17.6569 19.5208C14.5327 22.645 9.46734 22.645 6.34315 19.5208Z"
        stroke="currentColor"
        stroke-width="2"
      />

    </symbol>

    <symbol viewBox="0 0 24 24" id="mark">
      <path fill="currentColor"
        d="M6.4 20.4q-.5.2-.95-.087T5 19.475V5q0-.825.588-1.413T7 3h6v2H7v12.95l5-2.15l5 2.15V11h2v8.475q0 .55-.45.838t-.95.087L12 18l-5.6 2.4ZM7 5h6h-6Zm11 4q-.425 0-.713-.287T17 8V7h-1q-.425 0-.713-.288T15 6q0-.425.288-.713T16 5h1V4q0-.425.288-.713T18 3q.425 0 .713.288T19 4v1h1q.425 0 .713.288T21 6q0 .425-.288.713T20 7h-1v1q0 .425-.288.713T18 9Z" />
    </symbol>


    <symbol viewBox="0 0 24 24" id="rightArrow">
      <path fill="currentColor"
        d="M7.15 21.1q-.375-.375-.375-.888t.375-.887L14.475 12l-7.35-7.35q-.35-.35-.35-.875t.375-.9q.375-.375.888-.375t.887.375l8.4 8.425q.15.15.213.325T17.6 12q0 .2-.063.375t-.212.325L8.9 21.125q-.35.35-.863.35T7.15 21.1Z" />
    </symbol>
    <symbol viewBox="0 0 24 24" id="expand">
      <path fill="currentColor"
        d="M10 21v-2H6.41l4.5-4.5l-1.41-1.41l-4.5 4.5V14H3v7h7m4.5-10.09l4.5-4.5V10h2V3h-7v2h3.59l-4.5 4.5l1.41 1.41Z" />
    </symbol>

    <symbol viewBox="0 0 24 24" id="leftArrow">
      <path fill="currentColor"
        d="M15.125 21.1L6.7 12.7q-.15-.15-.213-.325T6.425 12q0-.2.062-.375T6.7 11.3l8.425-8.425q.35-.35.875-.35t.9.375q.375.375.375.875t-.375.875L9.55 12l7.35 7.35q.35.35.35.863t-.375.887q-.375.375-.875.375t-.875-.375Z" />

    </symbol>


    <symbol viewBox="0 0 24 24" id="bookmark">
      <path
        fill-rule="evenodd"
        clip-rule="evenodd"
        d="M2 19C2 20.6569 3.34315 22 5 22H19C20.6569 22 22 20.6569 22 19V5C22 3.34315 20.6569 2 19 2H5C3.34315 2 2 3.34315 2 5V19ZM20 19C20 19.5523 19.5523 20 19 20H5C4.44772 20 4 19.5523 4 19V5C4 4.44772 4.44772 4 5 4H10V12.0111L12.395 12.0112L14.0001 9.86419L15.6051 12.0112H18.0001L18 4H19C19.5523 4 20 4.44772 20 5V19ZM16 4H12V9.33585L14.0001 6.66046L16 9.33571V4Z"
        fill="currentColor"
      />
    </symbol>


    <symbol viewBox="0 0 20 20" id="clipboard">

      <svg xmlns="http://www.w3.org/2000/svg" width="20" height="20" viewBox="0 0 20 20">
        <path fill="currentColor"
          d="M7.085 3A1.5 1.5 0 0 1 8.5 2h3a1.5 1.5 0 0 1 1.415 1H14.5A1.5 1.5 0 0 1 16 4.5v12a1.5 1.5 0 0 1-1.5 1.5h-9A1.5 1.5 0 0 1 4 16.5v-12A1.5 1.5 0 0 1 5.5 3h1.585ZM8.5 3a.5.5 0 0 0 0 1h3a.5.5 0 0 0 0-1h-3ZM7.085 4H5.5a.5.5 0 0 0-.5.5v12a.5.5 0 0 0 .5.5h9a.5.5 0 0 0 .5-.5v-12a.5.5 0 0 0-.5-.5h-1.585A1.5 1.5 0 0 1 11.5 5h-3a1.5 1.5 0 0 1-1.415-1Z" />
      </svg>
      F </symbol>


    <symbol
      id="component"
      viewBox="0 0 24 24"
      fill="none"
      xmlns="http://www.w3.org/2000/svg"
    >
      <path
        fill-rule="evenodd"
        clip-rule="evenodd"
        d="M7.7572 6.3431L11.9998 2.10046L16.2425 6.3431L11.9998 10.5857L7.7572 6.3431ZM10.5856 6.3431L11.9998 4.92889L13.4141 6.3431L11.9998 7.75732L10.5856 6.3431Z"
        fill="currentColor"
      />
      <path
        fill-rule="evenodd"
        clip-rule="evenodd"
        d="M2.10046 11.9999L6.3431 7.75726L10.5857 11.9999L6.3431 16.2425L2.10046 11.9999ZM4.92889 11.9999L6.3431 10.5857L7.75732 11.9999L6.3431 13.4141L4.92889 11.9999Z"
        fill="currentColor"
      />
      <path
        fill-rule="evenodd"
        clip-rule="evenodd"
        d="M13.4142 11.9999L17.6568 16.2425L21.8995 11.9999L17.6568 7.75726L13.4142 11.9999ZM17.6568 10.5857L16.2426 11.9999L17.6568 13.4141L19.071 11.9999L17.6568 10.5857Z"
        fill="currentColor"
      />
      <path
        fill-rule="evenodd"
        clip-rule="evenodd"
        d="M7.7572 17.6569L11.9998 13.4142L16.2425 17.6569L11.9998 21.8995L7.7572 17.6569ZM10.5856 17.6569L11.9998 16.2427L13.4141 17.6569L11.9998 19.0711L10.5856 17.6569Z"
        fill="currentColor"
      />
    </symbol>


  </defs>
</svg>